<?xml version="1.0" standalone="no"?>
<!DOCTYPE svg PUBLIC "-//W3C//DTD SVG 20010904//EN"
 "http://www.w3.org/TR/2001/REC-SVG-20010904/DTD/svg10.dtd">
<svg version="1.0" xmlns="http://www.w3.org/2000/svg"
 width="1080.000000pt" height="1080.000000pt" viewBox="0 0 1080.000000 1080.000000"
 preserveAspectRatio="xMidYMid meet">
<metadata>
Created by potrace 1.14, written by Peter Selinger 2001-2017
</metadata>
<g transform="translate(0.000000,1080.000000) scale(0.100000,-0.100000)"
fill="#000000" stroke="none">
<path d="M5186 9004 c-243 -38 -484 -133 -657 -260 -220 -162 -397 -412 -471
-664 -52 -181 -51 -156 -57 -1205 l-6 -980 -530 -6 c-291 -3 -539 -8 -550 -12
-11 -3 -58 -13 -105 -22 -401 -75 -807 -303 -1048 -590 -232 -276 -364 -599
-401 -979 -14 -138 -14 -731 -1 -851 28 -247 81 -435 185 -653 184 -383 437
-645 790 -817 194 -95 399 -152 630 -175 76 -8 497 -10 1370 -8 1259 4 1260 4
1357 26 320 73 558 200 743 394 139 145 243 319 299 496 61 195 60 168 66
1232 l5 975 525 6 c441 4 539 8 613 23 217 42 375 95 557 186 545 273 878 768
939 1394 14 138 14 731 1 851 -45 402 -199 767 -451 1070 -222 265 -577 470
-946 544 -195 39 -258 41 -1530 40 -999 -1 -1255 -4 -1327 -15z m2669 -997
c89 -27 233 -100 290 -147 116 -97 197 -219 252 -380 54 -158 63 -239 63 -549
0 -300 -7 -368 -45 -487 -36 -114 -88 -197 -185 -294 -98 -98 -189 -154 -325
-199 -161 -53 -262 -62 -705 -59 l-395 3 -3 668 -2 667 -495 0 -495 0 0 -670
0 -669 -410 0 -410 0 0 912 c0 958 0 959 45 1047 24 49 82 108 130 132 91 48
56 47 1380 44 1165 -2 1254 -3 1310 -19z m-3857 -3769 l2 -668 495 0 495 0 0
670 0 669 410 0 410 0 0 -912 c0 -729 -3 -922 -14 -962 -37 -140 -125 -224
-266 -254 -41 -9 -366 -11 -1290 -9 -1390 4 -1268 -3 -1445 83 -191 93 -315
240 -392 465 -54 159 -63 238 -63 554 0 298 6 361 45 484 36 112 89 196 185
292 98 98 188 153 325 199 159 53 236 59 690 58 l410 -2 3 -667z"/>
</g>
</svg>
