<?xml version="1.0" encoding="UTF-8" standalone="no"?>
<!-- Generator: Adobe Illustrator 19.0.0, SVG Export Plug-In . SVG Version: 6.00 Build 0)  -->

<svg
   xmlns:dc="http://purl.org/dc/elements/1.1/"
   xmlns:cc="http://creativecommons.org/ns#"
   xmlns:rdf="http://www.w3.org/1999/02/22-rdf-syntax-ns#"
   xmlns:svg="http://www.w3.org/2000/svg"
   xmlns="http://www.w3.org/2000/svg"
   xmlns:xlink="http://www.w3.org/1999/xlink"
   xmlns:sodipodi="http://sodipodi.sourceforge.net/DTD/sodipodi-0.dtd"
   xmlns:inkscape="http://www.inkscape.org/namespaces/inkscape"
   version="1.1"
   id="Layer_1"
   x="0px"
   y="0px"
   viewBox="0 0 512 512"
   style="enable-background:new 0 0 512 512;"
   xml:space="preserve"
   sodipodi:docname="calculator.svg"
   inkscape:version="0.92.5 (2060ec1f9f, 2020-04-08)"><metadata
   id="metadata103"><rdf:RDF><cc:Work
       rdf:about=""><dc:format>image/svg+xml</dc:format><dc:type
         rdf:resource="http://purl.org/dc/dcmitype/StillImage" /></cc:Work></rdf:RDF></metadata><defs
   id="defs101"><linearGradient
   inkscape:collect="always"
   id="linearGradient1667"><stop
     style="stop-color:#996efd;stop-opacity:1"
     offset="0"
     id="stop1663" /><stop
     style="stop-color:#0000fd;stop-opacity:1"
     offset="1"
     id="stop1665" /></linearGradient>
	
	
	
	
	
	
	
	
	
	

	
	
<linearGradient
   inkscape:collect="always"
   xlink:href="#linearGradient1667"
   id="linearGradient1671"
   x1="-114.98304"
   y1="-167.05083"
   x2="1032.6781"
   y2="1097.7628"
   gradientUnits="userSpaceOnUse" /></defs><sodipodi:namedview
   pagecolor="#ffffff"
   bordercolor="#666666"
   borderopacity="1"
   objecttolerance="10"
   gridtolerance="10"
   guidetolerance="10"
   inkscape:pageopacity="0"
   inkscape:pageshadow="2"
   inkscape:window-width="1366"
   inkscape:window-height="691"
   id="namedview99"
   showgrid="false"
   inkscape:zoom="0.4609375"
   inkscape:cx="406.48105"
   inkscape:cy="87.973102"
   inkscape:window-x="0"
   inkscape:window-y="0"
   inkscape:window-maximized="1"
   inkscape:current-layer="Layer_1"
   showguides="true"
   inkscape:guide-bbox="true" />
<path
   style="fill:url(#linearGradient1671);fill-opacity:1;stroke:none;stroke-opacity:0"
   d="M512,258.536C512,401.324,397.384,512,256,512S0,401.324,0,258.536C0,115.756,114.616,0,256,0  S512,115.752,512,258.536z"
   id="path2" />











<g
   id="g68">
</g>
<g
   id="g70">
</g>
<g
   id="g72">
</g>
<g
   id="g74">
</g>
<g
   id="g76">
</g>
<g
   id="g78">
</g>
<g
   id="g80">
</g>
<g
   id="g82">
</g>
<g
   id="g84">
</g>
<g
   id="g86">
</g>
<g
   id="g88">
</g>
<g
   id="g90">
</g>
<g
   id="g92">
</g>
<g
   id="g94">
</g>
<g
   id="g96">
</g>
<path
   style="fill:#000000;fill-opacity:1;stroke-width:0.86425471"
   d="M 234.69325,479.59307 C 213.90992,477.68162 190.75562,473.17061 174.7799,467.92052 107.99396,445.97272 61.990527,386.45688 50.8984,307.6518 49.125248,295.05424 49.372998,257.96055 51.31403,245.42546 63.166129,168.8848 103.86556,109.90149 169.87415,73.603185 209.65906,51.72535 257.61245,39.855041 312.47618,38.303698 c 19.51542,-0.551823 48.86477,0.727147 55.2328,2.406906 4.33079,1.142379 7.8433,4.677188 9.22272,9.281261 0.95786,3.197041 0.88685,4.121013 -0.59063,7.686004 -1.04529,2.522198 -2.81373,4.824597 -4.68383,6.098094 -2.98047,2.029599 -3.11857,2.040137 -17.2647,1.317055 -20.56316,-1.051091 -54.86237,-0.805496 -67.41187,0.482682 -87.13011,8.943769 -152.33446,48.95489 -187.909539,115.30631 -22.004027,41.03992 -29.127595,91.41496 -19.509655,137.96464 10.437475,50.51612 37.378474,90.19151 76.484594,112.6371 18.23426,10.46585 39.46185,16.87734 69.82432,21.08941 15.06589,2.09004 46.78302,2.06036 60.24603,-0.0564 47.279,-7.43355 83.78714,-30.60082 109.11603,-69.24267 16.25298,-24.79563 27.44009,-57.44423 31.42612,-91.71474 1.73412,-14.9097 1.23363,-47.73229 -0.94075,-61.69047 -6.30603,-40.48134 -21.5808,-77.22242 -42.87028,-103.1179 -11.86504,-14.43207 -11.1702,-13.30199 -11.16668,-18.16103 0.004,-5.80204 2.33264,-9.663136 7.14472,-11.847567 7.48028,-3.39565 11.69175,-1.40454 21.31549,10.077597 29.78533,35.53707 48.33881,83.26268 52.87519,136.01271 1.22845,14.28513 0.51501,44.03453 -1.38618,57.80056 -9.69987,70.23358 -44.36855,126.19419 -96.37329,155.56121 -19.58213,11.05801 -40.62632,18.10055 -65.23191,21.83016 -13.09429,1.98478 -41.92022,2.80186 -55.33163,1.5684 z m -64.1788,-96.74643 c -3.73982,-2.28019 -6.25075,-6.58003 -6.25472,-10.71089 -0.002,-1.84803 2.52795,-12.89645 5.6216,-24.55206 3.09366,-11.65561 5.4816,-21.33525 5.30652,-21.51032 -0.17506,-0.17507 -3.64292,0.0594 -7.70634,0.52118 -8.99714,1.02232 -12.23098,0.26518 -16.15377,-3.78211 -2.39109,-2.46699 -2.97882,-3.82369 -3.2796,-7.57067 -0.30058,-3.74466 -0.002,-5.1003 1.65805,-7.54324 3.39768,-4.99821 6.1144,-5.99472 20.20406,-7.41093 7.03507,-0.70713 12.8559,-1.38125 12.93521,-1.49807 0.0794,-0.11682 6.72162,-25.09428 14.76069,-55.50546 15.92935,-60.25952 15.68968,-59.60057 22.4943,-61.8463 5.62988,-1.85802 12.82224,0.92239 15.35185,5.9347 0.64079,1.26971 7.87904,24.4767 16.08499,51.57109 8.20593,27.09438 15.21208,49.80981 15.56919,50.47875 0.48577,0.90992 2.30529,1.16788 7.22464,1.02424 5.05162,-0.1475 7.19283,0.17149 9.24,1.37654 5.75816,3.38944 7.96072,11.29765 4.82753,17.33302 -1.75615,3.38281 -4.43648,5.24489 -9.46177,6.57332 l -3.77175,0.99704 8.05004,26.35978 c 4.42753,14.49787 8.05832,27.64306 8.06842,29.21151 0.0235,3.64301 -1.79535,7.14225 -5.20245,10.00912 -4.97633,4.18732 -14.85217,2.52643 -18.41365,-3.09674 -0.69176,-1.09222 -5.21453,-15.01118 -10.05061,-30.93107 -4.83607,-15.91988 -8.91736,-29.06972 -9.0695,-29.22187 -0.37451,-0.37451 -44.69151,4.01945 -45.14847,4.4764 -0.19892,0.19893 -3.57685,12.46019 -7.5065,27.24723 -7.4942,28.20026 -8.12023,29.69319 -13.65971,32.57538 -3.30824,1.72128 -8.42424,1.49881 -11.71825,-0.50957 z m 58.34508,-88.26858 c 7.03223,-0.63147 11.46184,-1.39233 11.47848,-1.97164 0.0439,-1.52581 -14.98531,-50.66018 -15.37628,-50.26921 -0.50134,0.50135 -14.02807,51.66457 -14.03214,53.07493 -0.002,0.84579 0.86694,1.02711 3.23762,0.67524 1.78252,-0.26456 8.39408,-0.94376 14.69232,-1.50932 z m 86.20941,-74.57174 c -3.17845,-1.41268 -6.06164,-4.45658 -7.28859,-7.69486 -0.52731,-1.39173 -0.92182,-9.01825 -0.92182,-17.8202 v -15.38725 l -3.24096,-0.53569 c -1.78252,-0.29463 -5.57444,-0.54852 -8.42648,-0.5642 -9.99017,-0.0549 -15.98225,-4.91174 -15.98225,-12.95435 0,-4.65997 2.29146,-8.80158 6.25148,-11.29895 2.49578,-1.57395 3.87536,-1.73802 12.10747,-1.43993 l 9.29074,0.33642 v -8.21823 c 0,-6.45198 0.3715,-8.98566 1.72858,-11.78901 3.1795,-6.56797 11.87866,-9.3186 17.88626,-5.65553 4.97246,3.0319 5.83516,5.33414 6.3128,16.84648 l 0.43213,10.41557 9.21276,0.5231 c 10.04065,0.5701 13.31545,1.79894 16.62454,6.23825 1.31858,1.76895 1.81884,3.7126 1.81884,7.06672 0,5.28364 -1.84516,8.45721 -6.5028,11.18444 -2.43208,1.42408 -4.27971,1.64662 -12.22528,1.47249 l -9.36019,-0.20515 v 15.90086 c 0,15.09252 -0.0997,16.05016 -1.9618,18.83751 -3.52508,5.2767 -10.09958,7.25526 -15.75543,4.74151 z"
   id="path90"
   inkscape:connector-curvature="0" /><path
   inkscape:connector-curvature="0"
   id="path858"
   d="M 222.42075,471.92276 C 201.63742,470.01131 178.48312,465.5003 162.5074,460.25021 95.721463,438.30241 49.71803,378.78657 38.625903,299.98149 36.852751,287.38393 37.100501,250.29024 39.041533,237.75515 50.893632,161.21449 91.593063,102.23118 157.60165,65.932874 197.38656,44.055039 245.33995,32.18473 300.20368,30.633387 c 19.51542,-0.551823 48.86477,0.727147 55.2328,2.406906 4.33079,1.142379 7.8433,4.677188 9.22272,9.281261 0.95786,3.197041 0.88685,4.121013 -0.59063,7.686004 -1.04529,2.522198 -2.81373,4.824597 -4.68383,6.098094 -2.98047,2.029599 -3.11857,2.040137 -17.2647,1.317055 -20.56316,-1.051091 -54.86237,-0.805496 -67.41187,0.482682 C 187.57806,66.849158 122.37371,106.86028 86.798634,173.2117 64.794607,214.25162 57.671039,264.62666 67.288979,311.17634 c 10.437475,50.51612 37.378471,90.19151 76.484591,112.6371 18.23426,10.46585 39.46185,16.87734 69.82432,21.08941 15.06589,2.09004 46.78302,2.06036 60.24603,-0.0564 47.279,-7.43355 83.78714,-30.60082 109.11603,-69.24267 16.25298,-24.79563 27.44009,-57.44423 31.42612,-91.71474 1.73412,-14.9097 1.23363,-47.73229 -0.94075,-61.69047 -6.30603,-40.48134 -21.5808,-77.22242 -42.87028,-103.1179 -11.86504,-14.43207 -11.1702,-13.30199 -11.16668,-18.16103 0.004,-5.802041 2.33264,-9.663137 7.14472,-11.847568 7.48028,-3.39565 11.69175,-1.40454 21.31549,10.077597 29.78533,35.537071 48.33881,83.262681 52.87519,136.012711 1.22845,14.28513 0.51501,44.03453 -1.38618,57.80056 -9.69987,70.23358 -44.36855,126.19419 -96.37329,155.56121 -19.58213,11.05801 -40.62632,18.10055 -65.23191,21.83016 -13.09429,1.98478 -41.92022,2.80186 -55.33163,1.5684 z m -64.1788,-96.74643 c -3.73982,-2.28019 -6.25075,-6.58003 -6.25472,-10.71089 -0.002,-1.84803 2.52795,-12.89645 5.6216,-24.55206 3.09366,-11.65561 5.4816,-21.33525 5.30652,-21.51032 -0.17506,-0.17507 -3.64292,0.0594 -7.70634,0.52118 -8.99714,1.02232 -12.23098,0.26518 -16.15377,-3.78211 -2.39109,-2.46699 -2.97882,-3.82369 -3.2796,-7.57067 -0.30058,-3.74466 -0.002,-5.1003 1.65805,-7.54324 3.39768,-4.99821 6.1144,-5.99472 20.20406,-7.41093 7.03507,-0.70713 12.8559,-1.38125 12.93521,-1.49807 0.0794,-0.11682 6.72162,-25.09428 14.76069,-55.50546 15.92935,-60.25952 15.68968,-59.60057 22.4943,-61.8463 5.62988,-1.85802 12.82224,0.92239 15.35185,5.9347 0.64079,1.26971 7.87904,24.4767 16.08499,51.57109 8.20593,27.09438 15.21208,49.80981 15.56919,50.47875 0.48577,0.90992 2.30529,1.16788 7.22464,1.02424 5.05162,-0.1475 7.19283,0.17149 9.24,1.37654 5.75816,3.38944 7.96072,11.29765 4.82753,17.33302 -1.75615,3.38281 -4.43648,5.24489 -9.46177,6.57332 l -3.77175,0.99704 8.05004,26.35978 c 4.42753,14.49787 8.05832,27.64306 8.06842,29.21151 0.0235,3.64301 -1.79535,7.14225 -5.20245,10.00912 -4.97633,4.18732 -14.85217,2.52643 -18.41365,-3.09674 -0.69176,-1.09222 -5.21453,-15.01118 -10.05061,-30.93107 -4.83607,-15.91988 -8.91736,-29.06972 -9.0695,-29.22187 -0.37451,-0.37451 -44.69151,4.01945 -45.14847,4.4764 -0.19892,0.19893 -3.57685,12.46019 -7.5065,27.24723 -7.4942,28.20026 -8.12023,29.69319 -13.65971,32.57538 -3.30824,1.72128 -8.42424,1.49881 -11.71825,-0.50957 z m 58.34508,-88.26858 c 7.03223,-0.63147 11.46184,-1.39233 11.47848,-1.97164 0.0439,-1.52581 -14.98531,-50.66018 -15.37628,-50.26921 -0.50134,0.50135 -14.02807,51.66457 -14.03214,53.07493 -0.002,0.84579 0.86694,1.02711 3.23762,0.67524 1.78252,-0.26456 8.39408,-0.94376 14.69232,-1.50932 z m 86.20941,-74.57174 c -3.17845,-1.41268 -6.06164,-4.45658 -7.28859,-7.69486 -0.52731,-1.39173 -0.92182,-9.01825 -0.92182,-17.8202 V 171.4337 l -3.24096,-0.53569 c -1.78252,-0.29463 -5.57444,-0.54852 -8.42648,-0.5642 -9.99017,-0.0549 -15.98225,-4.91174 -15.98225,-12.95435 0,-4.65997 2.29146,-8.80158 6.25148,-11.29895 2.49578,-1.57395 3.87536,-1.73802 12.10747,-1.43993 l 9.29074,0.33642 v -8.21823 c 0,-6.45198 0.3715,-8.98566 1.72858,-11.78901 3.1795,-6.56797 11.87866,-9.3186 17.88626,-5.65553 4.97246,3.0319 5.83516,5.33414 6.3128,16.84648 l 0.43213,10.41557 9.21276,0.5231 c 10.04065,0.5701 13.31545,1.79894 16.62454,6.23825 1.31858,1.76895 1.81884,3.7126 1.81884,7.06672 0,5.28364 -1.84516,8.45721 -6.5028,11.18444 -2.43208,1.42408 -4.27971,1.64662 -12.22528,1.47249 l -9.36019,-0.20515 v 15.90086 c 0,15.09252 -0.0997,16.05016 -1.9618,18.83751 -3.52508,5.2767 -10.09958,7.25526 -15.75543,4.74151 z"
   style="fill:#ffffff;fill-opacity:1;stroke-width:0.86425471" /></svg>
