<?xml version="1.0" encoding="UTF-8" standalone="no"?>
<svg
   version="1.0"
   width="512pt"
   height="512pt"
   viewBox="0 0 512 512"
   preserveAspectRatio="xMidYMid"
   id="svg29"
   sodipodi:docname="favicon.svg"
   inkscape:version="1.2.2 (732a01da63, 2022-12-09, custom)"
   inkscape:export-filename="../d5625df/1favicon.svg"
   inkscape:export-xdpi="72"
   inkscape:export-ydpi="72"
   xmlns:inkscape="http://www.inkscape.org/namespaces/inkscape"
   xmlns:sodipodi="http://sodipodi.sourceforge.net/DTD/sodipodi-0.dtd"
   xmlns="http://www.w3.org/2000/svg"
   xmlns:svg="http://www.w3.org/2000/svg">
  <defs
     id="defs33" />
  <sodipodi:namedview
     id="namedview31"
     pagecolor="#ffffff"
     bordercolor="#000000"
     borderopacity="0.25"
     inkscape:showpageshadow="2"
     inkscape:pageopacity="0.0"
     inkscape:pagecheckerboard="0"
     inkscape:deskcolor="#d1d1d1"
     inkscape:document-units="pt"
     showgrid="false"
     inkscape:zoom="0.51893628"
     inkscape:cx="364.20657"
     inkscape:cy="376.73219"
     inkscape:window-width="1304"
     inkscape:window-height="704"
     inkscape:window-x="0"
     inkscape:window-y="0"
     inkscape:window-maximized="1"
     inkscape:current-layer="svg29" />
  <g
     inkscape:groupmode="layer"
     id="layer1"
     inkscape:label="Layer 1">
    <rect
       style="fill:#ffffff;stroke-width:0.75"
       id="rect265"
       width="547.83978"
       height="549.39233"
       x="-19.894964"
       y="-16.123728" />
  </g>
  <g
     transform="matrix(0.1,0,0,-0.1,0,512)"
     fill="#000000"
     stroke="none"
     id="g27">
    <path
       d="m 2380,4146 c -152,-36 -282,-121 -361,-238 -100,-147 -109,-207 -109,-724 v -404 h -192 c -213,0 -287,-9 -398,-47 -256,-88 -432,-273 -501,-528 -18,-66 -23,-115 -26,-285 -4,-181 -2,-217 17,-310 60,-295 249,-518 511,-603 130,-43 247,-49 829,-45 467,4 543,6 595,21 204,58 356,195 424,381 l 26,71 5,455 5,455 235,6 c 261,6 314,16 451,84 111,54 177,106 257,199 59,69 97,140 134,249 30,89 31,99 36,304 5,233 -4,330 -42,441 -84,247 -260,420 -511,503 l -70,24 -630,2 c -482,1 -643,-2 -685,-11 z m 1228,-427 c 118,-25 212,-115 254,-243 20,-63 23,-90 23,-246 0,-168 -1,-177 -26,-231 -50,-107 -131,-172 -254,-204 -42,-11 -109,-15 -232,-15 h -173 v 295 295 h -215 -215 v -295 -295 h -210 -210 v 410 c 0,350 2,415 16,449 16,41 47,67 93,81 41,13 1092,12 1149,-1 z M 1910,2050 v -300 h 220 220 v 300 300 l 208,-2 207,-3 v -415 c 0,-401 -1,-416 -21,-450 -11,-19 -38,-45 -60,-58 l -39,-22 -575,2 -575,3 -55,26 c -76,35 -121,77 -158,146 -55,105 -75,273 -52,450 17,129 83,222 195,275 86,40 126,46 318,47 l 167,1 z"
       id="path25" />
  </g>
</svg>
