<?xml version="1.0" encoding="UTF-8" standalone="no"?>
<!-- Created with Inkscape (http://www.inkscape.org/) -->

<svg
   width="2000px"
   height="2000px"
   viewBox="0 0 2000 2000"
   version="1.1"
   id="SVGRoot"
   sodipodi:docname="Logo Caminho.svg"
   inkscape:version="1.2.2 (732a01da63, 2022-12-09, custom)"
   xmlns:inkscape="http://www.inkscape.org/namespaces/inkscape"
   xmlns:sodipodi="http://sodipodi.sourceforge.net/DTD/sodipodi-0.dtd"
   xmlns="http://www.w3.org/2000/svg"
   xmlns:svg="http://www.w3.org/2000/svg">
  <sodipodi:namedview
     id="namedview270"
     pagecolor="#ffffff"
     bordercolor="#000000"
     borderopacity="0.25"
     inkscape:showpageshadow="2"
     inkscape:pageopacity="0.0"
     inkscape:pagecheckerboard="0"
     inkscape:deskcolor="#d1d1d1"
     inkscape:document-units="px"
     showgrid="false"
     inkscape:zoom="0.35355339"
     inkscape:cx="997.02056"
     inkscape:cy="1045.1038"
     inkscape:window-width="1304"
     inkscape:window-height="704"
     inkscape:window-x="0"
     inkscape:window-y="0"
     inkscape:window-maximized="1"
     inkscape:current-layer="layer2" />
  <defs
     id="defs265" />
  <rect
     style="fill:#ffffff"
     id="rect388"
     width="2000"
     height="2000"
     x="0"
     y="0"
     inkscape:label="Retângulo"
     sodipodi:insensitive="true" />
  <g
     inkscape:groupmode="layer"
     id="layer2"
     inkscape:label="Logo">
    <g
       aria-label="P"
       transform="matrix(-1.0819479,0,0,-1.0819479,82.376933,-167.65816)"
       id="text664"
       style="font-size:1333.33px;fill:#ffffff"
       inkscape:label="P invertido">
      <path
         d="m -154.92708,-1308.3837 q 0,57.9426 -14.32289,103.5154 -14.32288,45.5728 -39.0624,80.7289 -24.08848,34.5052 -55.98944,59.2447 -31.90096,24.7395 -67.05712,40.3645 -34.50512,15.6249 -70.31232,22.7864 -35.15616,7.16139 -66.40608,7.16139 h -382.81153 v -169.27039 h 382.81153 q 32.552,-2.6042 58.5936,-13.0208 26.69264,-11.0677 45.5728,-29.2968 18.88016,-18.2291 29.2968,-43.6197 10.41664,-26.0416 10.41664,-58.5936 v -76.8227 q -3.2552,-31.901 -13.67184,-58.5936 -10.41664,-26.6927 -28.64576,-45.5728 -17.57808,-18.8802 -42.96864,-29.2968 -25.39056,-11.0677 -58.5936,-11.0677 h -381.50945 q -33.85408,0 -51.43216,17.5781 -17.57809,17.5781 -17.57809,50.7811 v 695.96178 h -169.27037 v -695.96178 q 0,-65.104 23.4374,-110.6768 24.0885,-45.5728 59.2447,-73.5675 35.80715,-27.9947 77.47371,-40.3645 41.66657,-13.0208 76.82273,-13.0208 h 382.81153 q 57.29152,0 102.86432,14.9739 45.5728,14.3229 80.07792,39.0624 35.15616,24.0885 59.24464,55.9895 24.73952,31.9009 40.36448,67.0571 16.276,34.5051 23.43745,70.3123 7.16144,35.1562 7.16144,66.4061 z"
         style="font-family:Audiowide;-inkscape-font-specification:Audiowide;fill:#000000"
         id="path1215" />
    </g>
    <g
       aria-label="P"
       transform="matrix(1.0819479,0,0,1.0819479,82.376933,-167.65816)"
       id="text504"
       style="font-size:1333.33px;fill:#ffffff"
       inkscape:label="P">
      <path
         d="m 1541.3155,850.05326 q 0,57.94256 -14.3229,103.51536 -14.3228,45.5728 -39.0624,80.72898 -24.0884,34.5051 -55.9894,59.2446 -31.901,24.7395 -67.0571,40.3645 -34.5051,15.625 -70.3123,22.7864 -35.1562,7.1614 -66.4061,7.1614 H 845.35375 V 994.58414 h 382.81155 q 32.552,-2.60416 58.5936,-13.0208 26.6926,-11.06768 45.5728,-29.2968 18.8801,-18.22912 29.2968,-43.61968 10.4166,-26.0416 10.4166,-58.5936 v -76.82273 q -3.2552,-31.90096 -13.6718,-58.5936 -10.4167,-26.69264 -28.6458,-45.5728 -17.5781,-18.88016 -42.9686,-29.2968 -25.3906,-11.06768 -58.5936,-11.06768 H 846.65583 q -33.85408,0 -51.43216,17.57808 -17.57808,17.57808 -17.57808,50.78112 V 1393.0206 H 608.37518 V 697.05885 q 0,-65.104 23.43745,-110.6768 24.08848,-45.5728 59.24464,-73.56752 35.8072,-27.99472 77.47376,-40.36449 41.66656,-13.0208 76.82272,-13.0208 h 382.81155 q 57.2915,0 102.8643,14.97393 45.5728,14.32288 80.0779,39.0624 35.1562,24.08848 59.2447,55.98944 24.7395,31.90096 40.3644,67.05712 16.276,34.50512 23.4375,70.31232 7.1614,35.15616 7.1614,66.40608 z"
         style="font-family:Audiowide;-inkscape-font-specification:Audiowide;fill:#000000"
         id="path1212" />
    </g>
  </g>
</svg>
